<?xml version="1.0" encoding="UTF-8"?>
<svg id="Layer_2" data-name="Layer 2" xmlns="http://www.w3.org/2000/svg" viewBox="0 0 996.65 180.59">
  <defs>
    <style>
      .cls-1 {
        fill: none;
      }
    </style>
  </defs>
  <g id="Layer_1-2" data-name="Layer 1">
    <g>
      <path class="cls-1" d="M567.07,43.42h-21.99v35.27h21.99c6.36,0,23.77,0,23.77-18.53,0-16.74-14.62-16.74-23.77-16.74Z"/>
      <path d="M262.67,163.75h-67.03c-3.45,0-6.24,2.79-6.24,6.24s2.79,6.24,6.24,6.24h67.03c3.45,0,6.24-2.79,6.24-6.24s-2.79-6.24-6.24-6.24Z"/>
      <path d="M262.67,124.09h-76.71c-3.45,0-6.24,2.79-6.24,6.24s2.79,6.24,6.24,6.24h76.71c3.45,0,6.24-2.79,6.24-6.24s-2.79-6.24-6.24-6.24Z"/>
      <path d="M42.91,47.61c0,23.65,19.2,42.91,42.91,42.91s42.91-19.26,42.91-42.91S109.53,4.7,85.82,4.7,42.91,23.91,42.91,47.61Z"/>
      <path d="M85.82,111.97C57.23,111.97,0,126.3,0,154.89v21.45H171.64v-21.45c0-28.59-57.23-42.91-85.82-42.91Z"/>
      <path d="M133.54,10.95c0,3.45,2.8,6.25,6.25,6.25h122.76c3.45,0,6.25-2.8,6.25-6.25s-2.8-6.25-6.25-6.25h-122.76c-3.45,0-6.25,2.8-6.25,6.25Z"/>
      <path d="M262.68,44.47l-111.34-.23h-.01c-3.45,0-6.24,2.79-6.25,6.24,0,3.45,2.79,6.26,6.24,6.26l111.34,.23h.01c3.45,0,6.24-2.79,6.25-6.24,0-3.45-2.79-6.26-6.24-6.26Z"/>
      <path d="M135.95,96.71h126.56c3.45,0,6.24-2.79,6.24-6.24s-2.79-6.24-6.24-6.24h-126.56c-3.45,0-6.24,2.79-6.24,6.24s2.79,6.24,6.24,6.24Z"/>
      <path d="M460.48,4.58h-36.49c-3.02,0-4.58,1.56-4.58,4.57V79.36h-59.94V9.15c0-3.01-1.56-4.57-4.58-4.57h-36.49c-3.02,0-4.58,1.56-4.58,4.57V171.44c0,3.02,1.56,4.58,4.58,4.58h36.49c3.02,0,4.58-1.56,4.58-4.58v-53.24h59.94v53.24c0,3.02,1.56,4.58,4.58,4.58h36.49c3.02,0,4.58-1.56,4.58-4.58V9.15c0-3.01-1.56-4.57-4.58-4.57Z"/>
      <path d="M610.04,111.61c16.85-8.82,26.45-27.12,26.45-51.9,0-29.35-13.17-55.14-61.5-55.14h-71.21c-3.02,0-4.58,1.56-4.58,4.57V171.44c0,3.02,1.56,4.58,4.58,4.58h36.72c3.02,0,4.58-1.56,4.58-4.58v-53.91h19.31l27.57,55.03c1.12,2.34,2.79,3.46,5.25,3.46h41.63c3.46,0,4.8-2.23,3.23-5.47l-32.03-58.93Zm-42.97-32.93h-21.99V43.42h21.99c9.15,0,23.77,0,23.77,16.74,0,18.53-17.41,18.53-23.77,18.53Z"/>
      <path d="M831.13,4.58l-75.67,94.65L680.23,4.58c-5.47-6.92-11.16-4.58-11.16,3.91V171.44c0,3.02,1.56,4.58,4.58,4.58h35.38c3.02,0,4.58-1.56,4.58-4.58v-61.49l38.61,45.09c2.12,2.46,4.35,2.46,6.36,0l39.18-45.54v61.94c0,3.02,1.56,4.58,4.57,4.58h35.39c3.01,0,4.57-1.56,4.57-4.58V8.48c0-8.48-5.92-10.49-11.16-3.91Z"/>
      <path d="M954.12,73.11c-20.31-9.38-36.39-14.4-36.39-24.67,0-7.7,7.59-10.27,18.08-10.27s23.33,2.57,34.49,6.36c2.79,1.01,4.8-.22,5.69-2.9l8.26-28.13c.9-3.01,0-4.8-2.9-5.69-15.62-4.8-33.93-7.81-47.1-7.81-32.03,0-62.95,14.18-62.95,51.68,0,26.79,17.19,40.18,37.05,50.45,20.09,10.38,41.64,16.52,41.64,27.91,0,8.7-8.48,11.94-20.32,11.94s-28.8-3.46-43.42-8.26c-2.79-.89-4.8-.22-5.8,2.79l-9.82,29.91c-.89,3.02,.22,4.8,3.23,5.69,20.76,5.92,38.62,8.48,55.58,8.48,32.48,0,67.19-12.61,67.19-52.57,0-31.81-22.21-45.54-42.53-54.91Z"/>
    </g>
  </g>
</svg>